<?xml version="1.0" encoding="utf-8"?>
<!-- Generator: Adobe Illustrator 19.0.0, SVG Export Plug-In . SVG Version: 6.00 Build 0)  -->
<svg version="1.1" id="Layer_1" xmlns="http://www.w3.org/2000/svg" xmlns:xlink="http://www.w3.org/1999/xlink" x="0px" y="0px"
	 viewBox="0 0 750 576.7" style="enable-background:new 0 0 750 576.7;" xml:space="preserve">
<style type="text/css">
	.st0{fill:#779EAF;}
</style>
<g id="XMLID_1_">
	<path id="XMLID_2_" class="st0" d="M91.1,145.3v-85h20.5c7.4,0,12.8,2.1,16.2,6.2c3.4,4.1,5.1,10.1,5.1,17.9c0,3.8-0.4,7.2-1.1,10
		c-0.7,2.8-1.8,5.2-3.1,7c-1.3,1.8-3,3.3-5.1,4.4c-2.1,1.1-4.3,1.9-6.8,2.4c-2.4,0.5-5.2,0.7-8.4,0.7v36.4H91.1z M108.4,96.8
		c0.9,0,1.7-0.1,2.4-0.2s1.3-0.2,1.9-0.4c0.5-0.1,1-0.4,1.4-0.8c0.4-0.4,0.7-0.7,1-1s0.5-0.7,0.7-1.4c0.2-0.6,0.3-1.2,0.4-1.6
		c0.1-0.4,0.2-1.1,0.2-2c0-0.9,0.1-1.6,0.1-2.2s0-1.4,0-2.6c0-0.3,0-0.6,0-0.7c0-1.2,0-2.2,0-2.8c0-0.6-0.1-1.4-0.2-2.4
		c-0.1-1-0.2-1.7-0.4-2.2s-0.5-1-0.9-1.7c-0.4-0.6-0.9-1.1-1.4-1.4c-0.6-0.3-1.3-0.5-2.1-0.8s-1.9-0.3-3-0.3V96.8z"/>
	<path id="XMLID_5_" class="st0" d="M138.8,145.3V83.7h15.8v5c2.4-3.9,5.3-5.9,8.5-5.9c0.9,0,2.3,0.2,4.3,0.5v13.4
		c-2.9-0.3-5-0.5-6.2-0.5c-2.2,0-3.8,0.7-4.9,2c-1.1,1.3-1.7,3.3-1.7,5.7v41.4H138.8z"/>
	<path id="XMLID_7_" class="st0" d="M169.9,129.3v-26.2c0-6.5,1.6-11.7,4.7-15.3c3.1-3.7,7.9-5.5,14.3-5.5c6.4,0,11.2,1.8,14.3,5.5
		c3.1,3.7,4.7,8.8,4.7,15.4v12.8h-22v13.7c0,3.5,1,5.2,3,5.2c2.2,0,3.3-1.9,3.3-5.6v-6.8h15.6v6.9c0,5.1-1.9,9.3-5.6,12.5
		c-3.7,3.2-8.2,4.8-13.4,4.8c-5.2,0-9.7-1.6-13.4-4.9C171.8,138.6,169.9,134.4,169.9,129.3z M185.9,107.5h6.2V99
		c0-3.1-1.1-4.7-3.2-4.7c-2,0-3,1.6-3,4.7V107.5z"/>
	<path id="XMLID_10_" class="st0" d="M212.4,130.5l12.2-4.3c0.3,0.9,0.6,1.7,0.8,2.2c0.2,0.5,0.5,1.3,1,2.3s0.9,1.8,1.3,2.3
		s1,1,1.7,1.5s1.4,0.7,2.1,0.7c2,0,3-1.2,3-3.5c0-0.9-0.2-1.7-0.6-2.6c-0.4-0.9-0.8-1.7-1.2-2.3s-1.2-1.5-2.2-2.5
		c-1.1-1-1.9-1.8-2.4-2.3c-0.6-0.5-1.6-1.4-3-2.6l-2.6-2.2c-3.4-2.9-6-5.8-7.9-8.6c-1.9-2.8-2.9-6-2.9-9.4c0-2.7,0.6-5.1,1.7-7.3
		c1.1-2.2,2.6-3.9,4.5-5.2c1.9-1.3,4-2.3,6.4-3c2.3-0.7,4.8-1.1,7.4-1.1c2.3,0,4.5,0.5,6.6,1.5c2.1,1,4,2.3,5.6,3.9
		c1.6,1.6,3,3.4,4.1,5.5c1.2,2,2.1,4.2,2.7,6.4l-11.4,3.9c-0.4-0.9-0.7-1.7-0.9-2.3c-0.3-0.6-0.7-1.4-1.2-2.4s-1.1-1.8-1.6-2.4
		c-0.5-0.6-1.2-1.1-1.9-1.6c-0.8-0.5-1.5-0.7-2.4-0.7c-1.1,0-2,0.4-2.6,1.2c-0.6,0.8-0.9,1.7-0.9,2.7c0,1.4,0.8,2.9,2.3,4.7
		s3.6,3.7,6.3,5.9l2.9,2.6c1.6,1.4,2.9,2.7,4.1,4c1.1,1.2,2.3,2.7,3.4,4.2c1.1,1.6,2,3.2,2.6,5c0.6,1.7,0.9,3.5,0.9,5.2
		c0,5-1.8,9.1-5.3,12.3c-3.5,3.2-7.8,4.9-12.7,4.9c-4.8,0-9-1.5-12.5-4.5C216.2,139.2,213.8,135.3,212.4,130.5z"/>
	<path id="XMLID_12_" class="st0" d="M255.3,129.6v-26.5c0-6.5,1.6-11.7,4.7-15.3s7.9-5.5,14.3-5.5c6.4,0,11.2,1.8,14.3,5.5
		c3.1,3.7,4.7,8.8,4.7,15.4v5.4h-15.6v-7c0-2.5-0.2-4.3-0.6-5.4s-1.3-1.7-2.7-1.7c-2,0-3,1.6-3,4.7v30.5c0,3.5,1,5.2,3,5.2
		c0.8,0,1.4-0.2,1.8-0.5s0.8-0.9,1-1.6s0.3-1.5,0.4-2.3c0.1-0.8,0.1-1.9,0.1-3.4v-6.6h15.6v9.2c0,3.4-0.9,6.4-2.6,9.1
		s-4.1,4.7-6.9,6s-6,2-9.4,2c-5.2,0-9.7-1.6-13.4-4.7S255.3,134.7,255.3,129.6z"/>
	<path id="XMLID_14_" class="st0" d="M299.9,145.3V83.7h15.8v5c2.4-3.9,5.3-5.9,8.5-5.9c0.9,0,2.3,0.2,4.3,0.5v13.4
		c-2.9-0.3-5-0.5-6.2-0.5c-2.2,0-3.8,0.7-4.9,2c-1.1,1.3-1.7,3.3-1.7,5.7v41.4H299.9z"/>
	<path id="XMLID_17_" class="st0" d="M333.7,78.3V63.4h15.9v14.9H333.7z M333.7,145.3V83.7h15.9v61.6H333.7z"/>
	<path id="XMLID_20_" class="st0" d="M358.6,162.9V83.7h15.9v4.2c1.3-1.7,2.8-3,4.6-4c1.8-1,3.7-1.5,5.6-1.5c3.6,0,6.7,1.5,9.1,4.5
		c2.5,3,3.7,6.4,3.7,10.3v36.4c0,3.5-1.2,6.6-3.5,9.2s-5.3,3.9-8.8,3.9c-2.1,0-4.1-0.5-6-1.6c-1.9-1.1-3.5-2.5-4.7-4.4v22.2H358.6z
		 M381.7,130.3V98.4c0-2.7-0.9-4.1-2.6-4.1c-1.2,0-2.7,1.2-4.5,3.5v33.4c1.6,2.3,3.1,3.4,4.5,3.4c0.8,0,1.3-0.3,1.8-0.8
		c0.4-0.5,0.7-1,0.8-1.6S381.7,131.1,381.7,130.3z"/>
	<path id="XMLID_23_" class="st0" d="M406.9,124.2V94.3h-4.5V83.7h4.5V63.4h15.9v20.3h7.7v10.6h-7.7V128c0,1.7,0.3,3,0.9,3.8
		c0.6,0.8,1.7,1.3,3.4,1.3c1.8,0,3.4-0.1,4.6-0.3v12.3c-2.1,0.6-5.4,0.9-10.1,0.9c-1.9,0-3.5-0.2-5-0.7s-2.8-1-3.8-1.8
		c-1-0.7-1.9-1.7-2.6-2.8c-0.7-1.1-1.3-2.3-1.7-3.5s-0.8-2.6-1-4.1c-0.2-1.6-0.4-3-0.5-4.4C406.9,127.5,406.9,125.9,406.9,124.2z"/>
	<path id="XMLID_25_" class="st0" d="M462.2,145.3l-1.6-6.4c-0.9,2.9-2.4,4.9-4.5,6c-2.1,1.1-4.7,1.7-7.7,1.7c-2.3,0-4.3-0.4-6-1.3
		c-1.7-0.9-3-2.1-4-3.6c-1-1.5-1.7-3.1-2.1-4.8s-0.7-3.5-0.7-5.4c0-2.1,0.2-4.1,0.7-6c0.4-1.8,1-3.4,1.7-4.8s1.6-2.7,2.8-4
		c1.2-1.3,2.4-2.4,3.5-3.3c1.1-0.9,2.6-1.8,4.4-2.8c1.8-1,3.4-1.8,4.8-2.4c1.4-0.6,3.2-1.4,5.3-2.3v-5.2c0-2.2-0.3-3.8-0.8-4.9
		c-0.5-1.1-1.4-1.6-2.7-1.6c-0.9,0-1.6,0.2-2.1,0.5c-0.6,0.4-0.9,0.9-1.2,1.6s-0.4,1.4-0.4,2s-0.1,1.4-0.1,2.3v3.5h-15.4
		c0-7.1,1.8-12.5,5.3-16.3c3.6-3.8,8.7-5.7,15.5-5.7c4.7,0,8.9,1.7,12.4,5.1c3.6,3.4,5.3,7.5,5.3,12.2V129c0,5.1,0.7,10.5,2,16.4
		H462.2z M459,131.4v-15.2c-5.2,4.2-7.8,8.8-7.8,13.9c0,1.3,0.2,2.3,0.7,3.2s1.3,1.3,2.5,1.3c0.7,0,1.3-0.2,2-0.6s1.1-0.8,1.4-1.1
		C458,132.7,458.4,132.1,459,131.4z"/>
	<path id="XMLID_28_" class="st0" d="M483.5,145.3v-85h15.9v27.5c1.3-1.7,2.8-3,4.6-4c1.8-1,3.7-1.5,5.6-1.5c3.6,0,6.7,1.5,9.1,4.5
		c2.5,3,3.7,6.4,3.7,10.3v36.4c0,3.5-1.2,6.6-3.5,9.2c-2.4,2.6-5.3,3.9-8.8,3.9c-2.1,0-4.1-0.5-6-1.6c-1.9-1.1-3.5-2.5-4.7-4.4v4.6
		H483.5z M506.5,130.3V98.4c0-2.7-0.9-4.1-2.6-4.1c-0.6,0-1.2,0.3-1.9,0.8s-1.1,1-1.4,1.3c-0.3,0.3-0.7,0.9-1.2,1.6v32.9l0.3,0.4
		c0.2,0.3,0.3,0.4,0.3,0.5c0.1,0.1,0.2,0.2,0.4,0.5c0.2,0.3,0.3,0.4,0.4,0.5c0.1,0.1,0.2,0.3,0.4,0.5s0.4,0.4,0.5,0.5
		c0.1,0.1,0.3,0.2,0.5,0.4c0.2,0.2,0.4,0.3,0.5,0.3c0.2,0.1,0.4,0.1,0.5,0.2c0.2,0.1,0.4,0.1,0.6,0.1c0.8,0,1.3-0.3,1.8-0.8
		c0.4-0.5,0.7-1,0.8-1.6C506.5,131.8,506.5,131.1,506.5,130.3z"/>
	<path id="XMLID_31_" class="st0" d="M530.7,145.3v-85h15.9v85H530.7z"/>
	<path id="XMLID_33_" class="st0" d="M554.8,129.3v-26.2c0-6.5,1.6-11.7,4.7-15.3s7.9-5.5,14.3-5.5c6.4,0,11.2,1.8,14.3,5.5
		c3.1,3.7,4.7,8.8,4.7,15.4v12.8h-22v13.7c0,3.5,1,5.2,3,5.2c2.2,0,3.3-1.9,3.3-5.6v-6.8h15.6v6.9c0,5.1-1.9,9.3-5.6,12.5
		c-3.7,3.2-8.2,4.8-13.4,4.8s-9.7-1.6-13.4-4.9C556.7,138.6,554.8,134.4,554.8,129.3z M570.8,107.5h6.2V99c0-3.1-1.1-4.7-3.2-4.7
		c-2,0-3,1.6-3,4.7V107.5z"/>
	<path id="XMLID_36_" class="st0" d="M599.8,87.1V63.8h-4v-4.2h13.6v4.2h-4v23.4H599.8z"/>
	<path id="XMLID_38_" class="st0" d="M611.2,87.1V59.6h6.7l2.9,18.4l3.2-18.4h6.4v27.5h-4.1l-0.1-19.4c-0.3,2-0.8,5.2-1.6,9.7
		c-0.8,4.5-1.3,7.7-1.6,9.7h-4.2l-3.4-19.5l-0.1,19.5H611.2z"/>
</g>
<g id="XMLID_40_">
	<path id="XMLID_75_" d="M91.1,297v-85h20.5c7.4,0,12.8,2.1,16.2,6.2c3.4,4.1,5.1,10.1,5.1,17.9c0,3.8-0.4,7.2-1.1,10
		c-0.7,2.8-1.8,5.2-3.1,7c-1.3,1.8-3,3.3-5.1,4.4s-4.3,1.9-6.8,2.4s-5.2,0.7-8.4,0.7V297H91.1z M108.4,248.5c0.9,0,1.7-0.1,2.4-0.2
		s1.3-0.2,1.9-0.4c0.5-0.1,1-0.4,1.4-0.8c0.4-0.4,0.7-0.7,1-1c0.3-0.3,0.5-0.7,0.7-1.4c0.2-0.6,0.3-1.2,0.4-1.6
		c0.1-0.4,0.2-1.1,0.2-2s0.1-1.6,0.1-2.2s0-1.4,0-2.6c0-0.3,0-0.6,0-0.7c0-1.2,0-2.2,0-2.8c0-0.6-0.1-1.4-0.2-2.4s-0.2-1.7-0.4-2.2
		c-0.2-0.5-0.5-1-0.9-1.7c-0.4-0.6-0.9-1.1-1.4-1.4c-0.6-0.3-1.3-0.5-2.1-0.8s-1.9-0.3-3-0.3V248.5z"/>
	<path id="XMLID_73_" d="M138.8,297v-61.6h15.8v5c2.4-3.9,5.3-5.9,8.5-5.9c0.9,0,2.3,0.2,4.3,0.5v13.4c-2.9-0.3-5-0.5-6.2-0.5
		c-2.2,0-3.8,0.7-4.9,2s-1.7,3.3-1.7,5.7V297H138.8z"/>
	<path id="XMLID_70_" d="M169.9,281v-26.2c0-6.5,1.6-11.7,4.7-15.3c3.1-3.7,7.9-5.5,14.3-5.5c6.4,0,11.2,1.8,14.3,5.5
		c3.1,3.7,4.7,8.8,4.7,15.4v12.8h-22v13.7c0,3.5,1,5.2,3,5.2c2.2,0,3.3-1.9,3.3-5.6V274h15.6v6.9c0,5.1-1.9,9.3-5.6,12.5
		c-3.7,3.2-8.2,4.8-13.4,4.8c-5.2,0-9.7-1.6-13.4-4.9C171.8,290.3,169.9,286.1,169.9,281z M185.9,259.2h6.2v-8.5
		c0-3.1-1.1-4.7-3.2-4.7c-2,0-3,1.6-3,4.7V259.2z"/>
	<path id="XMLID_68_" d="M212.4,282.1l12.2-4.3c0.3,0.9,0.6,1.7,0.8,2.2c0.2,0.5,0.5,1.3,1,2.3c0.5,1,0.9,1.8,1.3,2.3
		c0.4,0.5,1,1,1.7,1.5s1.4,0.7,2.1,0.7c2,0,3-1.2,3-3.5c0-0.9-0.2-1.7-0.6-2.6c-0.4-0.9-0.8-1.7-1.2-2.3s-1.2-1.5-2.2-2.5
		c-1.1-1-1.9-1.8-2.4-2.3c-0.6-0.5-1.6-1.4-3-2.6l-2.6-2.2c-3.4-2.9-6-5.8-7.9-8.6c-1.9-2.8-2.9-6-2.9-9.4c0-2.7,0.6-5.1,1.7-7.3
		c1.1-2.2,2.6-3.9,4.5-5.2c1.9-1.3,4-2.3,6.4-3c2.3-0.7,4.8-1.1,7.4-1.1c2.3,0,4.5,0.5,6.6,1.5c2.1,1,4,2.3,5.6,3.9s3,3.4,4.1,5.5
		c1.2,2,2.1,4.2,2.7,6.4l-11.4,3.9c-0.4-0.9-0.7-1.7-0.9-2.3c-0.3-0.6-0.7-1.4-1.2-2.4s-1.1-1.8-1.6-2.4c-0.5-0.6-1.2-1.1-1.9-1.6
		s-1.5-0.7-2.4-0.7c-1.1,0-2,0.4-2.6,1.2c-0.6,0.8-0.9,1.7-0.9,2.7c0,1.4,0.8,2.9,2.3,4.7c1.5,1.7,3.6,3.7,6.3,5.9l2.9,2.6
		c1.6,1.4,2.9,2.7,4.1,4c1.1,1.2,2.3,2.7,3.4,4.2c1.1,1.6,2,3.2,2.6,5s0.9,3.5,0.9,5.2c0,5-1.8,9.1-5.3,12.3s-7.8,4.9-12.7,4.9
		c-4.8,0-9-1.5-12.5-4.5S213.8,287,212.4,282.1z"/>
	<path id="XMLID_66_" d="M255.3,281.2v-26.5c0-6.5,1.6-11.7,4.7-15.3c3.1-3.7,7.9-5.5,14.3-5.5c6.4,0,11.2,1.8,14.3,5.5
		c3.1,3.7,4.7,8.8,4.7,15.4v5.4h-15.6v-7c0-2.5-0.2-4.3-0.6-5.4c-0.4-1.1-1.3-1.7-2.7-1.7c-2,0-3,1.6-3,4.7v30.5c0,3.5,1,5.2,3,5.2
		c0.8,0,1.4-0.2,1.8-0.5c0.5-0.3,0.8-0.9,1-1.6c0.2-0.8,0.3-1.5,0.4-2.3c0.1-0.8,0.1-1.9,0.1-3.4V272h15.6v9.2
		c0,3.4-0.9,6.4-2.6,9.1s-4.1,4.7-6.9,6s-6,2-9.4,2c-5.2,0-9.7-1.6-13.4-4.7C257.1,290.5,255.3,286.3,255.3,281.2z"/>
	<path id="XMLID_64_" d="M299.9,297v-61.6h15.8v5c2.4-3.9,5.3-5.9,8.5-5.9c0.9,0,2.3,0.2,4.3,0.5v13.4c-2.9-0.3-5-0.5-6.2-0.5
		c-2.2,0-3.8,0.7-4.9,2s-1.7,3.3-1.7,5.7V297H299.9z"/>
	<path id="XMLID_61_" d="M333.7,230v-14.9h15.9V230H333.7z M333.7,297v-61.6h15.9V297H333.7z"/>
	<path id="XMLID_58_" d="M358.6,314.5v-79.2h15.9v4.2c1.3-1.7,2.8-3,4.6-4c1.8-1,3.7-1.5,5.6-1.5c3.6,0,6.7,1.5,9.1,4.5
		c2.5,3,3.7,6.4,3.7,10.3v36.4c0,3.5-1.2,6.6-3.5,9.2s-5.3,3.9-8.8,3.9c-2.1,0-4.1-0.5-6-1.6c-1.9-1.1-3.5-2.5-4.7-4.4v22.2H358.6z
		 M381.7,281.9V250c0-2.7-0.9-4.1-2.6-4.1c-1.2,0-2.7,1.2-4.5,3.5V283c1.6,2.3,3.1,3.4,4.5,3.4c0.8,0,1.3-0.3,1.8-0.8
		c0.4-0.5,0.7-1,0.8-1.6S381.7,282.8,381.7,281.9z"/>
	<path id="XMLID_56_" d="M406.9,275.8V246h-4.5v-10.6h4.5v-20.3h15.9v20.3h7.7V246h-7.7v33.7c0,1.7,0.3,3,0.9,3.8
		c0.6,0.8,1.7,1.3,3.4,1.3c1.8,0,3.4-0.1,4.6-0.3v12.3c-2.1,0.6-5.4,0.9-10.1,0.9c-1.9,0-3.5-0.2-5-0.7s-2.8-1-3.8-1.8
		c-1-0.7-1.9-1.7-2.6-2.8c-0.7-1.1-1.3-2.3-1.7-3.5c-0.4-1.2-0.8-2.6-1-4.1s-0.4-3-0.5-4.4S406.9,277.6,406.9,275.8z"/>
	<path id="XMLID_53_" d="M462.2,297l-1.6-6.4c-0.9,2.9-2.4,4.9-4.5,6c-2.1,1.1-4.7,1.7-7.7,1.7c-2.3,0-4.3-0.4-6-1.3s-3-2.1-4-3.6
		c-1-1.5-1.7-3.1-2.1-4.8s-0.7-3.5-0.7-5.4c0-2.1,0.2-4.1,0.7-6c0.4-1.8,1-3.4,1.7-4.8c0.7-1.4,1.6-2.7,2.8-4
		c1.2-1.3,2.4-2.4,3.5-3.3c1.1-0.9,2.6-1.8,4.4-2.8c1.8-1,3.4-1.8,4.8-2.4c1.4-0.6,3.2-1.4,5.3-2.3v-5.2c0-2.2-0.3-3.8-0.8-4.9
		c-0.5-1.1-1.4-1.6-2.7-1.6c-0.9,0-1.6,0.2-2.1,0.5c-0.6,0.4-0.9,0.9-1.2,1.6c-0.2,0.7-0.4,1.4-0.4,2c-0.1,0.6-0.1,1.4-0.1,2.3v3.5
		h-15.4c0-7.1,1.8-12.5,5.3-16.3c3.6-3.8,8.7-5.7,15.5-5.7c4.7,0,8.9,1.7,12.4,5.1c3.6,3.4,5.3,7.5,5.3,12.2v29.3
		c0,5.1,0.7,10.5,2,16.4H462.2z M459,283.1v-15.2c-5.2,4.2-7.8,8.8-7.8,13.9c0,1.3,0.2,2.3,0.7,3.2c0.5,0.9,1.3,1.3,2.5,1.3
		c0.7,0,1.3-0.2,2-0.6s1.1-0.8,1.4-1.1C458,284.3,458.4,283.8,459,283.1z"/>
	<path id="XMLID_50_" d="M483.5,297v-85h15.9v27.5c1.3-1.7,2.8-3,4.6-4c1.8-1,3.7-1.5,5.6-1.5c3.6,0,6.7,1.5,9.1,4.5
		c2.5,3,3.7,6.4,3.7,10.3v36.4c0,3.5-1.2,6.6-3.5,9.2c-2.4,2.6-5.3,3.9-8.8,3.9c-2.1,0-4.1-0.5-6-1.6c-1.9-1.1-3.5-2.5-4.7-4.4v4.6
		H483.5z M506.5,281.9V250c0-2.7-0.9-4.1-2.6-4.1c-0.6,0-1.2,0.3-1.9,0.8s-1.1,1-1.4,1.3c-0.3,0.3-0.7,0.9-1.2,1.6v32.9l0.3,0.4
		c0.2,0.3,0.3,0.4,0.3,0.5c0.1,0.1,0.2,0.2,0.4,0.5c0.2,0.3,0.3,0.4,0.4,0.5c0.1,0.1,0.2,0.3,0.4,0.5s0.4,0.4,0.5,0.5
		c0.1,0.1,0.3,0.2,0.5,0.4s0.4,0.3,0.5,0.3c0.2,0.1,0.4,0.1,0.5,0.2c0.2,0.1,0.4,0.1,0.6,0.1c0.8,0,1.3-0.3,1.8-0.8
		c0.4-0.5,0.7-1,0.8-1.6C506.5,283.5,506.5,282.8,506.5,281.9z"/>
	<path id="XMLID_48_" d="M530.7,297v-85h15.9v85H530.7z"/>
	<path id="XMLID_45_" d="M554.8,281v-26.2c0-6.5,1.6-11.7,4.7-15.3c3.1-3.7,7.9-5.5,14.3-5.5c6.4,0,11.2,1.8,14.3,5.5
		c3.1,3.7,4.7,8.8,4.7,15.4v12.8h-22v13.7c0,3.5,1,5.2,3,5.2c2.2,0,3.3-1.9,3.3-5.6V274h15.6v6.9c0,5.1-1.9,9.3-5.6,12.5
		c-3.7,3.2-8.2,4.8-13.4,4.8s-9.7-1.6-13.4-4.9C556.7,290.3,554.8,286.1,554.8,281z M570.8,259.2h6.2v-8.5c0-3.1-1.1-4.7-3.2-4.7
		c-2,0-3,1.6-3,4.7V259.2z"/>
	<path id="XMLID_43_" d="M599.8,238.8v-23.4h-4v-4.2h13.6v4.2h-4v23.4H599.8z"/>
	<path id="XMLID_41_" d="M611.2,238.8v-27.5h6.7l2.9,18.4l3.2-18.4h6.4v27.5h-4.1l-0.1-19.4c-0.3,2-0.8,5.2-1.6,9.7
		c-0.8,4.5-1.3,7.7-1.6,9.7h-4.2l-3.4-19.5l-0.1,19.5H611.2z"/>
</g>
<g id="XMLID_116_">
	<path id="XMLID_117_" class="st0" d="M576.8,428.4c-2,0-3,1.6-3,4.7v8.5h6.2v-8.5C580,430,578.9,428.4,576.8,428.4z"/>
	<path id="XMLID_118_" class="st0" d="M454.1,464.2c0,1.3,0.2,2.3,0.7,3.2c0.5,0.9,1.3,1.3,2.5,1.3c0.7,0,1.3-0.2,2-0.6
		c0.6-0.4,1.1-0.8,1.4-1.1c0.3-0.3,0.7-0.8,1.3-1.6v-15.2C456.7,454.6,454.1,459.2,454.1,464.2z"/>
	<path id="XMLID_119_" class="st0" d="M382,428.4c-1.2,0-2.7,1.2-4.5,3.5v33.4c1.6,2.3,3.1,3.4,4.5,3.4c0.8,0,1.3-0.3,1.8-0.8
		c0.4-0.5,0.7-1,0.8-1.6s0.1-1.3,0.1-2.1v-31.9C384.7,429.8,383.8,428.4,382,428.4z"/>
	<path id="XMLID_122_" class="st0" d="M66.8,369v140.1h590.4V369H66.8z M134.7,428.5c-0.7,2.8-1.8,5.2-3.1,7c-1.3,1.8-3,3.3-5.1,4.4
		c-2.1,1.1-4.3,1.9-6.8,2.4c-2.4,0.5-5.2,0.7-8.4,0.7v36.4H94.1v-85h20.5c7.4,0,12.8,2.1,16.2,6.2c3.4,4.1,5.1,10.1,5.1,17.9
		C135.9,422.3,135.5,425.7,134.7,428.5z M170.4,430.8c-2.9-0.3-5-0.5-6.2-0.5c-2.2,0-3.8,0.7-4.9,2c-1.1,1.3-1.7,3.3-1.7,5.7v41.4
		h-15.8v-61.6h15.8v5c2.4-3.9,5.3-5.9,8.5-5.9c0.9,0,2.3,0.2,4.3,0.5V430.8z M210.8,450h-22v13.7c0,3.5,1,5.2,3,5.2
		c2.2,0,3.3-1.9,3.3-5.6v-6.8h15.6v6.9c0,5.1-1.9,9.3-5.6,12.5c-3.7,3.2-8.2,4.8-13.4,4.8s-9.7-1.6-13.4-4.9
		c-3.7-3.2-5.6-7.4-5.6-12.5v-26.2c0-6.5,1.6-11.7,4.7-15.3c3.1-3.7,7.9-5.5,14.3-5.5c6.4,0,11.2,1.8,14.3,5.5
		c3.1,3.7,4.7,8.8,4.7,15.4V450z M232.9,436.7c1.5,1.7,3.6,3.7,6.3,5.9l2.9,2.6c1.6,1.4,2.9,2.7,4.1,4c1.1,1.2,2.3,2.7,3.4,4.2
		c1.1,1.6,2,3.2,2.6,5s0.9,3.5,0.9,5.2c0,5-1.8,9.1-5.3,12.3c-3.5,3.2-7.8,4.9-12.7,4.9c-4.8,0-9-1.5-12.5-4.5
		c-3.5-3-5.9-6.9-7.3-11.8l12.2-4.3c0.3,0.9,0.6,1.7,0.8,2.2c0.2,0.5,0.5,1.3,1,2.3s0.9,1.8,1.3,2.3s1,1,1.7,1.5
		c0.7,0.5,1.4,0.7,2.1,0.7c2,0,3-1.2,3-3.5c0-0.9-0.2-1.7-0.6-2.6s-0.8-1.7-1.2-2.3c-0.4-0.6-1.2-1.5-2.2-2.5s-1.9-1.8-2.4-2.3
		c-0.6-0.5-1.6-1.4-3-2.6l-2.6-2.2c-3.4-2.9-6-5.8-7.9-8.6c-1.9-2.8-2.9-6-2.9-9.4c0-2.7,0.6-5.1,1.7-7.3c1.1-2.2,2.6-3.9,4.5-5.2
		s4-2.3,6.4-3c2.3-0.7,4.8-1.1,7.4-1.1c2.3,0,4.5,0.5,6.6,1.5c2.1,1,4,2.3,5.6,3.9c1.6,1.6,3,3.4,4.1,5.5c1.2,2,2.1,4.2,2.7,6.4
		l-11.4,3.9c-0.4-0.9-0.7-1.7-0.9-2.3c-0.3-0.6-0.7-1.4-1.2-2.4c-0.6-1-1.1-1.8-1.6-2.4c-0.5-0.6-1.2-1.1-1.9-1.6s-1.5-0.7-2.4-0.7
		c-1.1,0-2,0.4-2.6,1.2c-0.6,0.8-0.9,1.7-0.9,2.7C230.6,433.4,231.3,435,232.9,436.7z M296.2,442.6h-15.6v-7c0-2.5-0.2-4.3-0.6-5.4
		s-1.3-1.7-2.7-1.7c-2,0-3,1.6-3,4.7v30.5c0,3.5,1,5.2,3,5.2c0.8,0,1.4-0.2,1.8-0.5c0.5-0.3,0.8-0.9,1-1.6c0.2-0.8,0.3-1.5,0.4-2.3
		s0.1-1.9,0.1-3.4v-6.6h15.6v9.2c0,3.4-0.9,6.4-2.6,9.1s-4.1,4.7-6.9,6c-2.9,1.4-6,2-9.4,2c-5.2,0-9.7-1.6-13.4-4.7
		c-3.7-3.2-5.6-7.3-5.6-12.4v-26.5c0-6.5,1.6-11.7,4.7-15.3c3.1-3.7,7.9-5.5,14.3-5.5c6.4,0,11.2,1.8,14.3,5.5
		c3.1,3.7,4.7,8.8,4.7,15.4V442.6z M331.5,430.8c-2.9-0.3-5-0.5-6.2-0.5c-2.2,0-3.8,0.7-4.9,2c-1.1,1.3-1.7,3.3-1.7,5.7v41.4h-15.8
		v-61.6h15.8v5c2.4-3.9,5.3-5.9,8.5-5.9c0.9,0,2.3,0.2,4.3,0.5V430.8z M352.6,479.4h-15.9v-61.6h15.9V479.4z M352.6,412.4h-15.9
		v-14.9h15.9V412.4z M400.6,467.6c0,3.5-1.2,6.6-3.5,9.2c-2.4,2.6-5.3,3.9-8.8,3.9c-2.1,0-4.1-0.5-6-1.6c-1.9-1.1-3.5-2.5-4.7-4.4
		V497h-15.9v-79.2h15.9v4.2c1.3-1.7,2.8-3,4.6-4c1.8-1,3.7-1.5,5.6-1.5c3.6,0,6.7,1.5,9.1,4.5c2.5,3,3.7,6.4,3.7,10.3V467.6z
		 M434.7,479.2c-2.1,0.6-5.4,0.9-10.1,0.9c-1.9,0-3.5-0.2-5-0.7s-2.8-1-3.8-1.8c-1-0.7-1.9-1.7-2.6-2.8c-0.7-1.1-1.3-2.3-1.7-3.5
		c-0.4-1.2-0.8-2.6-1-4.1c-0.2-1.6-0.4-3-0.5-4.4s-0.1-2.9-0.1-4.6v-29.9h-4.5v-10.6h4.5v-20.3h15.9v20.3h7.7v10.6h-7.7v33.7
		c0,1.7,0.3,3,0.9,3.8c0.6,0.8,1.7,1.3,3.4,1.3c1.8,0,3.4-0.1,4.6-0.3V479.2z M465.2,479.4l-1.6-6.4c-0.9,2.9-2.4,4.9-4.5,6
		c-2.1,1.1-4.7,1.7-7.7,1.7c-2.3,0-4.3-0.4-6-1.3s-3-2.1-4-3.6c-1-1.5-1.7-3.1-2.1-4.8c-0.5-1.7-0.7-3.5-0.7-5.4
		c0-2.1,0.2-4.1,0.7-6c0.4-1.8,1-3.4,1.7-4.8c0.7-1.4,1.6-2.7,2.8-4s2.4-2.4,3.5-3.3c1.1-0.9,2.6-1.8,4.4-2.8c1.8-1,3.4-1.8,4.8-2.4
		c1.4-0.6,3.2-1.4,5.3-2.3v-5.2c0-2.2-0.3-3.8-0.8-4.9c-0.5-1.1-1.4-1.6-2.7-1.6c-0.9,0-1.6,0.2-2.1,0.5c-0.6,0.4-0.9,0.9-1.2,1.6
		c-0.2,0.7-0.4,1.4-0.4,2c-0.1,0.6-0.1,1.4-0.1,2.3v3.5h-15.4c0-7.1,1.8-12.5,5.3-16.3c3.6-3.8,8.7-5.7,15.5-5.7
		c4.7,0,8.9,1.7,12.4,5.1c3.6,3.4,5.3,7.5,5.3,12.2V463c0,5.1,0.7,10.5,2,16.4H465.2z M525.4,467.6c0,3.5-1.2,6.6-3.5,9.2
		c-2.4,2.6-5.3,3.9-8.8,3.9c-2.1,0-4.1-0.5-6-1.6c-1.9-1.1-3.5-2.5-4.7-4.4v4.6h-15.9v-85h15.9V422c1.3-1.7,2.8-3,4.6-4
		c1.8-1,3.7-1.5,5.6-1.5c3.6,0,6.7,1.5,9.1,4.5c2.5,3,3.7,6.4,3.7,10.3V467.6z M549.6,479.4h-15.9v-85h15.9V479.4z M595.7,450h-22
		v13.7c0,3.5,1,5.2,3,5.2c2.2,0,3.3-1.9,3.3-5.6v-6.8h15.6v6.9c0,5.1-1.9,9.3-5.6,12.5c-3.7,3.2-8.2,4.8-13.4,4.8s-9.7-1.6-13.4-4.9
		c-3.7-3.2-5.6-7.4-5.6-12.5v-26.2c0-6.5,1.6-11.7,4.7-15.3c3.1-3.7,7.9-5.5,14.3-5.5c6.4,0,11.2,1.8,14.3,5.5
		c3.1,3.7,4.7,8.8,4.7,15.4V450z M612.3,397.9h-4v23.4h-5.6v-23.4h-4v-4.2h13.6V397.9z M633.4,421.2h-4.1l-0.1-19.4
		c-0.3,2-0.8,5.2-1.6,9.7c-0.8,4.5-1.3,7.7-1.6,9.7h-4.2l-3.4-19.5l-0.1,19.5h-4.1v-27.5h6.7l2.9,18.4l3.2-18.4h6.4V421.2z"/>
	<path id="XMLID_138_" class="st0" d="M506.9,428.4c-0.6,0-1.2,0.3-1.9,0.8c-0.7,0.5-1.1,1-1.4,1.3c-0.3,0.3-0.7,0.9-1.2,1.6V465
		l0.3,0.4c0.2,0.3,0.3,0.4,0.3,0.5c0.1,0.1,0.2,0.2,0.4,0.5c0.2,0.3,0.3,0.4,0.4,0.5s0.2,0.3,0.4,0.5c0.2,0.2,0.4,0.4,0.5,0.5
		c0.1,0.1,0.3,0.2,0.5,0.4c0.2,0.2,0.4,0.3,0.5,0.3c0.2,0.1,0.4,0.1,0.5,0.2c0.2,0.1,0.4,0.1,0.6,0.1c0.8,0,1.3-0.3,1.8-0.8
		c0.4-0.5,0.7-1,0.8-1.6s0.1-1.3,0.1-2.1v-31.9C509.5,429.8,508.6,428.4,506.9,428.4z"/>
	<path id="XMLID_139_" class="st0" d="M191.9,428.4c-2,0-3,1.6-3,4.7v8.5h6.2v-8.5C195,430,194,428.4,191.9,428.4z"/>
	<path id="XMLID_140_" class="st0" d="M119.4,413c-0.1-1-0.2-1.7-0.4-2.2c-0.2-0.5-0.5-1-0.9-1.7c-0.4-0.6-0.9-1.1-1.4-1.4
		c-0.6-0.3-1.3-0.5-2.1-0.8c-0.9-0.2-1.9-0.3-3-0.3v24.3c0.9,0,1.7-0.1,2.4-0.2c0.7-0.1,1.3-0.2,1.9-0.4c0.5-0.1,1-0.4,1.4-0.8
		c0.4-0.4,0.7-0.7,1-1c0.3-0.3,0.5-0.7,0.7-1.4c0.2-0.6,0.3-1.2,0.4-1.6c0.1-0.4,0.2-1.1,0.2-2s0.1-1.6,0.1-2.2c0-0.6,0-1.4,0-2.6
		c0-0.3,0-0.6,0-0.7c0-1.2,0-2.2,0-2.8C119.5,414.8,119.5,414,119.4,413z"/>
</g>
</svg>
